<?xml version="1.0" standalone="no"?>
<!DOCTYPE svg PUBLIC "-//W3C//DTD SVG 1.1//EN" "http://www.w3.org/Graphics/SVG/1.1/DTD/svg11.dtd" >
<svg xmlns="http://www.w3.org/2000/svg">
<metadata>Generated by IcoMoon</metadata>
<defs>
<font id="icomoon" horiz-adv-x="1024">
<font-face units-per-em="1024" ascent="960" descent="-64" />
<missing-glyph horiz-adv-x="1024" />
<glyph unicode="&#x20;" horiz-adv-x="512" d="" />
<glyph unicode="&#xe002;" glyph-name="mail" d="M170.667 810.667h682.667q53 0 90.5-37.5t37.5-90.5v-512q0-53-37.5-90.5t-90.5-37.5h-682.667q-53 0-90.5 37.5t-37.5 90.5v512q0 53 37.5 90.5t90.5 37.5zM896 170.667v466l-357.333-286q-11.333-9.333-26.667-9.333t-26.667 9.333l-357.333 286v-466q0-17.667 12.5-30.167t30.167-12.5h682.667q17.667 0 30.167 12.5t12.5 30.167zM853.333 725.334h-682.667q-6.333 0-14-2.333l355.333-284.333 355.333 284.333q-7.667 2.333-14 2.333z" />
<glyph unicode="&#xe036;" glyph-name="search" d="M426.667 896q78 0 149.167-30.5t122.5-81.833 81.833-122.5 30.5-149.167q0-67-21.833-128.333t-62.167-111.333l242.333-242q12.333-12.333 12.333-30.333 0-18.333-12.167-30.5t-30.5-12.167q-18 0-30.333 12.333l-242 242.333q-50-40.333-111.333-62.167t-128.333-21.833q-78 0-149.167 30.5t-122.5 81.833-81.833 122.5-30.5 149.167 30.5 149.167 81.833 122.5 122.5 81.833 149.167 30.5zM426.667 810.667q-60.667 0-116-23.667t-95.333-63.667-63.667-95.333-23.667-116 23.667-116 63.667-95.333 95.333-63.667 116-23.667 116 23.667 95.333 63.667 63.667 95.333 23.667 116-23.667 116-63.667 95.333-95.333 63.667-116 23.667z" />
<glyph unicode="&#xe114;" glyph-name="plus" d="M512 853.334q17.667 0 30.167-12.5t12.5-30.167v-341.333h341.333q17.667 0 30.167-12.5t12.5-30.167-12.5-30.167-30.167-12.5h-341.333v-341.333q0-17.667-12.5-30.167t-30.167-12.5-30.167 12.5-12.5 30.167v341.333h-341.333q-17.667 0-30.167 12.5t-12.5 30.167 12.5 30.167 30.167 12.5h341.333v341.333q0 17.667 12.5 30.167t30.167 12.5z" />
<glyph unicode="&#xe115;" glyph-name="minus" d="M128 469.334h768q17.667 0 30.167-12.5t12.5-30.167-12.5-30.167-30.167-12.5h-768q-17.667 0-30.167 12.5t-12.5 30.167 12.5 30.167 30.167 12.5z" />
<glyph unicode="&#xe116;" glyph-name="check" d="M896 725.334q18.333 0 30.5-12.167t12.167-30.5q0-18-12.333-30.333l-512-512q-12.333-12.333-30.333-12.333t-30.333 12.333l-256 256q-12.333 12.333-12.333 30.333 0 18.333 12.167 30.5t30.5 12.167q18 0 30.333-12.333l225.667-226 481.667 482q12.333 12.333 30.333 12.333z" />
<glyph unicode="&#xe117;" glyph-name="cross" d="M810.667 768q18.333 0 30.5-12.167t12.167-30.5q0-18-12.333-30.333l-268.667-268.333 268.667-268.333q12.333-12.333 12.333-30.333 0-18.333-12.167-30.5t-30.5-12.167q-18 0-30.333 12.333l-268.333 268.667-268.333-268.667q-12.333-12.333-30.333-12.333-18.333 0-30.5 12.167t-12.167 30.5q0 18 12.333 30.333l268.667 268.333-268.667 268.333q-12.333 12.333-12.333 30.333 0 18.333 12.167 30.5t30.5 12.167q18 0 30.333-12.333l268.333-268.667 268.333 268.667q12.333 12.333 30.333 12.333z" />
<glyph unicode="&#xe900;" glyph-name="07" d="M892.8 392.534v405.333c0 34.133-17.067 40.533-17.067 40.533-19.2 14.933-43.733 1.067-43.733 1.067-64-36.267-136.533-30.933-136.533-30.933-77.867-6.4-146.133 37.333-146.133 37.333-82.133 49.067-183.467 50.133-183.467 50.133-65.067 0-149.333-28.8-149.333-28.8v0c-6.4 17.067-22.4 28.8-40.533 28.8-24.533 0-43.733-20.267-43.733-43.733v-851.2c0-24.533 20.267-43.733 43.733-43.733 24.533 0 43.733 20.267 43.733 43.733v359.467c56.533 38.4 142.933 35.2 142.933 35.2 88.533 5.333 147.2-37.333 147.2-37.333 104.533-53.333 183.467-48 183.467-48 101.333 0 179.2 43.733 179.2 43.733 22.4 10.667 20.267 38.4 20.267 38.4v0z" />
<glyph unicode="&#xe901;" d="M874.667 896h-725.333c-58.667 0-106.667-48-106.667-106.667v-725.333c0-58.667 48-106.667 106.667-106.667h725.333c58.667 0 106.667 48 106.667 106.667v725.333c0 58.667-48 106.667-106.667 106.667z" />
<glyph unicode="&#xe902;" d="M874.667 896h-725.333c-58.667 0-106.667-48-106.667-106.667v-725.333c0-58.667 48-106.667 106.667-106.667h725.333c58.667 0 106.667 48 106.667 106.667v725.333c0 58.667-48 106.667-106.667 106.667zM896 106.667c0-35.2-28.8-64-64-64h-640c-35.2 0-64 28.8-64 64v640c0 35.2 28.8 64 64 64h640c35.2 0 64-28.8 64-64v-640z" />
<glyph unicode="&#xe903;" glyph-name="01" d="M853.333 896h-682.667c-70.4 0-128-57.6-128-128v-682.667c0-70.4 57.6-128 128-128h682.667c70.4 0 128 57.6 128 128v682.667c0 70.4-57.6 128-128 128zM773.333 528l-280.533-281.6c-21.333-21.333-58.667-21.333-80 0l-161.067 161.067c-21.333 21.333-21.333 58.667 0 80s58.667 21.333 80 0l120.533-120.533 241.067 241.067c21.333 21.333 58.667 21.333 80 0 22.4-22.4 22.4-58.667 0-80z" />
<glyph unicode="&#xe904;" glyph-name="02" d="M874.667 896h-725.333c-58.667 0-106.667-48-106.667-106.667v-725.333c0-58.667 48-106.667 106.667-106.667h725.333c58.667 0 106.667 48 106.667 106.667v725.333c0 58.667-48 106.667-106.667 106.667zM896 106.667c0-35.2-28.8-64-64-64h-640c-35.2 0-64 28.8-64 64v640c0 35.2 28.8 64 64 64h640c35.2 0 64-28.8 64-64v-640z" />
<glyph unicode="&#xe905;" glyph-name="03" d="M249.6 636.8l-80-78.933 342.4-341.333 342.4 341.333-80 78.933-262.4-263.467z" />
<glyph unicode="&#xe906;" glyph-name="04" d="M249.6 216.534l-80 78.933 342.4 341.333 342.4-341.333-80-78.933-262.4 263.467z" />
<glyph unicode="&#xe907;" glyph-name="05" d="M722.133 689.067l-78.933 78.933-341.333-341.333 341.333-341.333 78.933 78.933-263.467 262.4z" />
<glyph unicode="&#xe908;" glyph-name="06" d="M301.867 689.067l78.933 78.933 341.333-341.333-341.333-341.333-78.933 78.933 263.467 262.4z" />
<glyph unicode="&#xe909;" glyph-name="08" d="M704 192l42.667 42.667-192 192 192 192-42.667 42.667-192-192-192 192-42.667-42.667 192-192-192-192 42.667-42.667 192 192 192-192zM512-42.666c-259.2 0-469.333 210.133-469.333 469.333s210.133 469.333 469.333 469.333 469.333-210.133 469.333-469.333-210.133-469.333-469.333-469.333z" />
<glyph unicode="&#xe90a;" glyph-name="23" d="M350.933 154.667c40.533 0 73.6 10.667 98.133 32s37.333 50.133 37.333 84.267c0 25.6-8.533 46.933-24.533 64-9.6 10.667-22.4 18.133-37.333 23.467 33.067 17.067 50.133 46.933 50.133 87.467 0 27.733-10.667 51.2-30.933 68.267s-46.933 25.6-78.933 25.6c-32 0-61.867-7.467-86.4-21.333-3.2-2.133-4.267-4.267-4.267-7.467v-42.667c0-3.2 2.133-6.4 5.333-8.533s6.4-1.067 9.6 1.067c20.267 16 42.667 23.467 65.067 23.467 38.4 0 56.533-14.933 56.533-49.067 0-36.267-24.533-54.4-76.8-54.4h-27.733c-5.333 0-9.6-4.267-9.6-9.6v-37.333c0-5.333 4.267-9.6 9.6-9.6h29.867c58.667 0 87.467-19.2 87.467-58.667 0-17.067-6.4-30.933-18.133-41.6-12.8-10.667-29.867-16-52.267-16-28.8 0-54.4 8.533-76.8 26.667-3.2 2.133-6.4 2.133-9.6 1.067s-5.333-4.267-5.333-8.533v-46.933c0-3.2 2.133-6.4 4.267-7.467 20.267-10.667 49.067-18.133 85.333-18.133zM646.4 154.667c41.6 0 73.6 17.067 97.067 51.2 22.4 33.067 33.067 81.067 33.067 142.933 0 126.933-41.6 192-121.6 192-42.667 0-75.733-18.133-98.133-52.267-21.333-34.133-33.067-83.2-33.067-147.2 0-59.733 10.667-105.6 30.933-136.533 21.333-33.067 52.267-50.133 91.733-50.133zM650.667 210.134c-41.6 0-62.933 44.8-62.933 132.267 0 93.867 21.333 141.867 64 141.867 39.467 0 59.733-46.933 59.733-139.733 1.067-88.533-20.267-134.4-60.8-134.4zM942.933 829.867h-137.6c-11.733 0-20.267 9.6-20.267 20.267v6.4c0 21.333-17.067 39.467-39.467 39.467h-6.4c-21.333 0-39.467-17.067-39.467-39.467v-6.4c0-11.733-9.6-20.267-20.267-20.267h-334.933c-11.733 0-20.267 9.6-20.267 20.267v6.4c0 21.333-17.067 39.467-39.467 39.467h-6.4c-21.333 0-39.467-17.067-39.467-39.467v-6.4c0-11.733-9.6-20.267-20.267-20.267h-136.533c-21.333 0-39.467-17.067-39.467-39.467v-794.667c0-21.333 17.067-39.467 39.467-39.467h860.8c21.333 0 38.4 17.067 38.4 39.467v795.733c0 21.333-17.067 38.4-38.4 38.4zM115.2 725.334c0 18.133 21.333 29.867 32 29.867h71.467c9.6 0 20.267-17.067 20.267-29.867v-23.467c0-21.333 17.067-39.467 39.467-39.467h6.4c21.333 0 39.467 17.067 39.467 39.467v23.467c0 11.733 10.667 28.8 20.267 28.8h334.933c10.667 0 20.267-16 20.267-28.8v-23.467c0-21.333 17.067-39.467 39.467-39.467h6.4c21.333 0 39.467 17.067 39.467 39.467v23.467c0 11.733 9.6 27.733 21.333 27.733h71.467c10.667 0 19.2-3.2 24.533-8.533 4.267-4.267 6.4-10.667 6.4-19.2v-663.467c0-17.067-4.267-34.133-30.933-35.2h-730.667c-30.933 0-32 28.8-32 35.2v663.467z" />
<glyph unicode="&#xe90b;" glyph-name="09" d="M512 810.667c211.2 0 384-171.733 384-384s-172.8-384-384-384-384 172.8-384 384 172.8 384 384 384zM512 896c-259.2 0-469.333-210.133-469.333-469.333s210.133-469.333 469.333-469.333 469.333 210.133 469.333 469.333-210.133 469.333-469.333 469.333v0z" />
<glyph unicode="&#xe90c;" glyph-name="10" d="M512 810.667c211.2 0 384-171.733 384-384s-172.8-384-384-384-384 172.8-384 384 172.8 384 384 384zM512 896c-259.2 0-469.333-210.133-469.333-469.333s210.133-469.333 469.333-469.333 469.333 210.133 469.333 469.333-210.133 469.333-469.333 469.333v0zM725.333 426.667c0-117.821-95.513-213.333-213.333-213.333s-213.333 95.513-213.333 213.333c0 117.821 95.513 213.333 213.333 213.333s213.333-95.513 213.333-213.333z" />
<glyph unicode="&#xe90d;" glyph-name="26" d="M757.333 806.4c17.067 0 34.133-6.4 48-19.2l67.2-67.2c26.667-26.667 26.667-69.333 0-94.933l-428.8-429.867c-26.667-26.667-48-48-48-48l-162.133 164.267c0 0 21.333 21.333 48 48l427.733 427.733c12.8 12.8 29.867 19.2 48 19.2zM757.333 885.334c-39.467 0-75.733-14.933-103.467-42.667l-532.267-532.267 274.133-274.133 532.267 532.267c27.733 27.733 42.667 64 42.667 103.467s-14.933 75.733-42.667 103.467l-68.267 67.2c-26.667 27.733-64 42.667-102.4 42.667v0zM177.067 254.934l163.2-163.2-208-44.8 44.8 208zM177.067 333.867c-7.467 0-14.933-1.067-22.4-3.2-27.733-8.533-49.067-30.933-54.4-58.667l-44.8-208c-5.333-26.667 2.133-53.333 21.333-72.533 14.933-14.933 35.2-23.467 55.467-23.467 5.333 0 10.667 1.067 17.067 2.133l208 44.8c27.733 6.4 51.2 26.667 58.667 54.4 8.533 27.733 0 57.6-20.267 77.867l-162.133 163.2c-14.933 14.933-35.2 23.467-56.533 23.467v0zM864 528c-9.6 0-20.267 4.267-27.733 11.733l-205.867 204.8c-14.933 14.933-14.933 40.533 0 55.467s40.533 14.933 55.467 0l204.8-204.8c14.933-14.933 14.933-40.533 0-55.467-6.4-8.533-17.067-11.733-26.667-11.733zM931.2-32h-393.6c-21.333 0-39.467 18.133-39.467 39.467s18.133 39.467 39.467 39.467h393.6c21.333 0 39.467-18.133 39.467-39.467s-18.133-39.467-39.467-39.467z" />
<glyph unicode="&#xe90e;" glyph-name="inbox" d="M268.501 439.158c-16.661 16.661-16.661 43.68 0 60.341s43.68 16.661 60.341 0l140.491-140.501v494.336c0 23.552 19.115 42.667 42.667 42.667 23.563 0 42.667-19.115 42.667-42.667v-494.325l140.501 140.491c16.661 16.661 43.68 16.661 60.331 0 16.661-16.661 16.661-43.68 0-60.341l-213.333-213.333c-8.331-8.32-19.253-12.501-30.165-12.501-10.923 0-21.835 4.181-30.176 12.501l-213.323 213.333zM938.667 298.656c-23.563 0-42.667-19.104-42.667-42.656v-170.677c0-23.52-18.635-42.656-41.547-42.656h-683.787c-23.52 0-42.667 19.136-42.667 42.656v170.677c0 23.552-19.104 42.656-42.656 42.656-23.573 0-42.667-19.104-42.667-42.656v-170.677c0-17.259 3.392-34.016 10.069-49.835 6.443-15.253 15.669-28.928 27.413-40.672 11.744-11.733 25.429-20.96 40.672-27.403 15.808-6.709 32.565-10.080 49.835-10.080h683.787c17.173 0 33.856 3.413 49.579 10.155 15.125 6.475 28.693 15.744 40.32 27.531 11.605 11.744 20.693 25.429 27.051 40.661 6.581 15.755 9.92 32.459 9.92 49.643v170.677c0.011 23.552-19.093 42.656-42.656 42.656z" />
<glyph unicode="&#xe90f;" glyph-name="printer" d="M853.333 512h-85.333v213.333c0 70.72-57.28 128-128 128h-256c-70.72 0-128-57.28-128-128v-213.333h-85.333c-70.72 0-128-57.28-128-128v-170.667c0-70.72 57.28-128 128-128h92.768c17.579-49.675 64.853-85.333 120.565-85.333h256c55.712 0 102.955 35.659 120.565 85.333h92.768c70.72 0 128 57.28 128 128v170.667c0 70.72-57.28 128-128 128zM341.333 725.334c0 23.573 19.093 42.667 42.667 42.667h256c23.573 0 42.667-19.093 42.667-42.667v-213.333h-341.333v213.333zM640 85.334h-256c-23.563 0-42.667 19.104-42.667 42.667s19.104 42.667 42.667 42.667h256c23.563 0 42.667-19.104 42.667-42.667s-19.104-42.667-42.667-42.667zM896 213.334c0-23.573-19.093-42.667-42.667-42.667h-92.768c-17.568 49.675-64.853 85.333-120.565 85.333h-256c-55.712 0-102.955-35.659-120.565-85.333h-92.768c-23.573 0-42.667 19.093-42.667 42.667v170.667c0 23.573 19.093 42.667 42.667 42.667h682.667c23.573 0 42.667-19.093 42.667-42.667v-170.667z" />
<glyph unicode="&#xe910;" glyph-name="touxiang" d="M747.733 330.667c-14.933 11.733-39.467 9.6-51.2-6.4v0c-5.333-7.467-8.533-17.067-7.467-26.667s6.4-18.133 13.867-24.533c78.933-61.867 124.8-155.733 124.8-257.067 0-19.2 17.067-36.267 36.267-36.267s36.267 17.067 36.267 36.267c0 123.733-55.467 238.933-152.533 314.667zM774.4 606.934c0 147.2-117.333 266.667-262.4 266.667s-262.4-120.533-262.4-267.733c0-89.6 44.8-173.867 118.4-222.933-146.133-59.733-243.2-204.8-243.2-365.867-1.067-9.6 2.133-18.133 9.6-25.6 6.4-7.467 16-11.733 25.6-11.733 19.2 0 36.267 17.067 36.267 36.267 0 178.133 141.867 323.2 315.733 323.2 145.067 0 262.4 120.533 262.4 267.733zM512 411.734c-104.533 0-189.867 87.467-189.867 194.133 0 107.733 85.333 195.2 189.867 195.2s189.867-87.467 189.867-194.133c0-107.733-85.333-195.2-189.867-195.2z" />
<glyph unicode="&#xe911;" glyph-name="11" d="M283.733 455.467l396.8 395.733c16 16 42.667 16 59.733 0 16-16 16-42.667 0-59.733l-366.933-365.867 363.733-363.733c16-16 16-42.667 0-59.733-16-16-42.667-16-59.733 0l-390.4 390.4c-1.067 1.067-1.067 1.067-1.067 2.133-1.067 0-1.067 1.067-2.133 1.067-16 16-16 42.667 0 59.733v0z" />
<glyph unicode="&#xe912;" glyph-name="12" d="M740.267 455.467l-396.8 395.733c-16 16-42.667 16-59.733 0-16-16-16-42.667 0-59.733l366.933-365.867-363.733-363.733c-16-16-16-42.667 0-59.733 16-16 42.667-16 59.733 0l390.4 390.4c1.067 1.067 1.067 1.067 1.067 2.133 1.067 0 1.067 1.067 2.133 1.067 16 16 16 42.667 0 59.733v0z" />
<glyph unicode="&#xe913;" glyph-name="13" d="M512 896c-259.2 0-469.333-210.133-469.333-469.333s210.133-469.333 469.333-469.333 469.333 210.133 469.333 469.333-210.133 469.333-469.333 469.333zM512 41.6c-212.267 0-385.067 172.8-385.067 385.067s172.8 385.067 385.067 385.067 385.067-172.8 385.067-385.067-172.8-385.067-385.067-385.067zM710.4 587.734c-9.6 9.6-23.467 9.6-33.067 0v0l-226.133-227.2c-9.6-9.6-23.467-9.6-33.067 0v0l-70.4 70.4c-9.6 9.6-23.467 9.6-33.067 0v0l-19.2-19.2c-9.6-9.6-9.6-23.467 0-33.067l86.4-87.467 35.2-35.2c9.6-9.6 23.467-9.6 33.067 0v0l278.4 279.467c9.6 9.6 9.6 23.467 0 33.067l-18.133 19.2z" />
<glyph unicode="&#xe914;" glyph-name="outbox" d="M268.501 609.824c-16.661 16.661-16.661 43.68 0 60.341l213.333 213.333c16.661 16.661 43.68 16.661 60.331 0l213.333-213.333c16.661-16.661 16.661-43.68 0-60.341-8.331-8.331-19.253-12.491-30.165-12.491s-21.835 4.16-30.165 12.491l-140.501 140.501v-494.325c0-23.563-19.104-42.667-42.667-42.667s-42.667 19.104-42.667 42.667v494.325l-140.501-140.501c-16.651-16.651-43.68-16.651-60.331 0zM938.667 298.667c-23.563 0-42.667-19.104-42.667-42.667v-170.667c0-23.52-18.635-42.667-41.547-42.667h-683.787c-23.531 0-42.667 19.147-42.667 42.667v170.667c0 23.563-19.104 42.667-42.667 42.667s-42.667-19.104-42.667-42.667v-170.667c0-17.269 3.381-34.016 10.069-49.835 6.443-15.253 15.68-28.939 27.413-40.661 11.744-11.755 25.429-20.981 40.672-27.413 15.819-6.699 32.587-10.091 49.845-10.091h683.787c17.173 0 33.867 3.413 49.579 10.144 15.125 6.496 28.693 15.755 40.331 27.541 11.595 11.755 20.683 25.44 27.051 40.661 6.592 15.755 9.92 32.469 9.92 49.653v170.667c0 23.563-19.104 42.667-42.667 42.667z" />
<glyph unicode="&#xe915;" glyph-name="14" d="M938.667 564.267c-23.467 0-42.667-19.2-42.667-42.667v-436.267c0-23.467-19.2-42.667-42.667-42.667h-682.667c-23.467 0-42.667 19.2-42.667 42.667v682.667c0 23.467 19.2 42.667 42.667 42.667h436.267c23.467 0 42.667 19.2 42.667 42.667s-19.2 42.667-42.667 42.667h-436.267c-70.4 0-128-57.6-128-128v-682.667c0-70.4 57.6-128 128-128h682.667c70.4 0 128 57.6 128 128v436.267c0 23.467-19.2 42.667-42.667 42.667zM473.6 345.6c-10.667 0-21.333 4.267-29.867 12.8-17.067 17.067-17.067 43.733 0 60.8l443.733 443.733c17.067 17.067 43.733 17.067 60.8 0s17.067-43.733 0-60.8l-443.733-443.733c-9.6-8.533-20.267-12.8-30.933-12.8z" />
<glyph unicode="&#xe916;" glyph-name="15" d="M814.72 522.027h-67.2v123.307c0 128.96-106.56 218.667-235.52 218.667s-235.52-89.707-235.52-218.667v-117.333h-67.2c-30.962-0.061-56.046-25.144-56.107-56.101v-426.459c0.061-30.962 25.144-56.046 56.101-56.107h605.446c30.962 0.061 56.046 25.144 56.107 56.101v420.486c0.049 0.851 0.076 1.847 0.076 2.85 0 29.455-23.878 53.333-53.333 53.333-1.002 0-1.998-0.028-2.987-0.082l0.137 0.006zM545.6 241.6v-95.36c0.003-0.065 0.004-0.141 0.004-0.218 0-3.004-2.436-5.44-5.44-5.44-0.077 0-0.153 0.002-0.229 0.005h-50.336c-0.032-0.001-0.070-0.001-0.108-0.001-3.063 0-5.547 2.483-5.547 5.547 0 0.038 0 0.076 0.001 0.113v-0.006 95.36c-26.125 8.873-44.638 33.066-44.906 61.621v0.032c0 40.265 32.641 72.907 72.907 72.907s72.907-32.641 72.907-72.907v0c-0.222-27.064-16.012-50.387-38.844-61.474l-0.41-0.179zM657.813 522.027h-291.627v128.64c0 67.307 67.307 123.307 145.813 123.307s145.813-55.787 145.813-123.307z" />
<glyph unicode="&#xe917;" glyph-name="16" d="M512-10.666c-241.533 0-437.333 195.801-437.333 437.333s195.801 437.333 437.333 437.333c241.533 0 437.333-195.801 437.333-437.333v0c0-241.533-195.801-437.333-437.333-437.333v0zM512 820.267c-217.379 0-393.6-176.221-393.6-393.6s176.221-393.6 393.6-393.6c217.379 0 393.6 176.221 393.6 393.6v0c-0.243 217.282-176.318 393.357-393.577 393.6h-0.023zM666.347 250.454c-0.068-0.001-0.149-0.001-0.23-0.001-5.967 0-11.361 2.45-15.233 6.398l-138.67 138.67-138.667-138.667c-3.981-4.333-9.675-7.038-16-7.038-11.987 0-21.705 9.718-21.705 21.705 0 5.662 2.168 10.818 5.719 14.682l-0.014-0.016 140.16 140.16-138.667 138.667c-3.958 3.958-6.407 9.427-6.407 15.467 0 12.080 9.793 21.873 21.873 21.873 6.040 0 11.508-2.448 15.467-6.407l138.667-138.667 138.667 138.667c3.981 4.333 9.675 7.038 16 7.038 11.987 0 21.705-9.718 21.705-21.705 0-5.662-2.168-10.818-5.719-14.682l0.014 0.016-140.16-140.16 138.667-138.667c3.96-3.958 6.409-9.426 6.409-15.467 0-12.077-9.79-21.867-21.867-21.867-0.003 0-0.006 0-0.010 0h0.001z" />
<glyph unicode="&#xe918;" glyph-name="hint-16" d="M512 896c-259.206 0-469.333-210.128-469.333-469.333s210.128-469.333 469.333-469.333c259.206 0 469.333 210.128 469.333 469.333v0c0 259.206-210.128 469.333-469.333 469.333v0zM480.747 677.014c34.58 0 62.613-28.033 62.613-62.613s-28.033-62.613-62.613-62.613c-34.58 0-62.613 28.033-62.613 62.613v0c0 0.032 0 0.069 0 0.107 0 34.521 27.985 62.507 62.507 62.507 0.038 0 0.075 0 0.113 0h-0.006zM574.613 176.427h-62.613c-13.653 0-37.227 18.347-31.253 31.253v218.987c-44.16 17.387-62.613 34.453-62.613 62.613 0 14.080 18.453 31.253 62.613 31.253h31.253c19.84-1.493 34.987-9.92 31.253-31.253v-219.093h31.253c12.8-17.387 31.253-34.56 31.253-62.613-2.655-16.044-15.119-28.543-30.924-31.222l-0.222-0.031z" />
<glyph unicode="&#xe919;" glyph-name="eye" d="M512 810.667c-341.333 0-512-385.771-512-385.771s170.667-382.229 512-382.229 512 384 512 384-170.667 384-512 384zM512 128c-225.557 0-367.968 212.075-415.968 297.088 47.968 85.824 190.411 300.245 415.968 300.245 225.6 0 368.021-213.312 415.979-298.667-48.043-85.504-190.432-298.667-415.979-298.667zM512 597.334c-94.251 0-170.667-76.416-170.667-170.667 0-94.261 76.416-170.667 170.667-170.667 94.261 0 170.667 76.405 170.667 170.667 0 94.251-76.405 170.667-170.667 170.667zM512 341.334c-47.051 0-85.333 38.283-85.333 85.333s38.283 85.333 85.333 85.333 85.333-38.283 85.333-85.333-38.283-85.333-85.333-85.333z" />
<glyph unicode="&#xe91a;" glyph-name="18" d="M604.8 874.667l-22.4-372.267 340.267 137.6 58.667-173.867-358.4-97.067 244.267-277.333-144-113.067-212.267 309.333-214.4-309.333-144 113.067 245.333 277.333-356.267 97.067 57.6 173.867 339.2-136.533-21.333 371.2h187.733z" />
<glyph unicode="&#xe91b;" glyph-name="17" d="M528 825.6c-12.8 6.4-27.733 4.267-38.4-4.267-2.133-2.133-49.067-39.467-98.133-75.733-86.4-64-113.067-75.733-119.467-77.867h-139.733c-27.733 0-52.267-11.733-68.267-33.067-13.867-18.133-21.333-41.6-21.333-67.2v-281.6c0-55.467 44.8-100.267 99.2-100.267h39.467c20.267 0 36.267 16 36.267 36.267s-16 36.267-36.267 36.267h-39.467c-14.933 0-26.667 11.733-26.667 26.667v281.6c0 12.8 3.2 26.667 17.067 26.667h141.867c18.133 0 42.667 6.4 153.6 88.533 14.933 11.733 32 23.467 48 36.267v-579.2c-11.733 9.6-23.467 20.267-36.267 29.867-101.333 82.133-125.867 89.6-144 89.6-20.267 0-36.267-16-36.267-36.267 0-18.133 13.867-34.133 33.067-36.267 5.333-2.133 29.867-13.867 107.733-77.867 45.867-37.333 86.4-73.6 88.533-75.733 6.4-6.4 14.933-9.6 23.467-9.6 0 0 0 0 0 0 5.333 0 10.667 1.067 14.933 3.2 12.8 6.4 21.333 19.2 21.333 33.067v733.867c0 14.933-7.467 27.733-20.267 33.067zM775.467 771.2c-8.533 4.267-18.133 5.333-27.733 3.2-9.6-3.2-17.067-9.6-21.333-18.133-9.6-18.133-2.133-39.467 14.933-49.067 103.467-55.467 167.467-162.133 167.467-279.467s-64-224-167.467-279.467c-18.133-9.6-24.533-32-14.933-49.067 6.4-11.733 18.133-19.2 32-19.2 6.4 0 11.733 1.067 17.067 4.267 126.933 68.267 205.867 199.467 205.867 343.467s-78.933 275.2-205.867 343.467zM780.8 306.134c22.4 36.267 34.133 77.867 34.133 121.6 0 42.667-11.733 85.333-34.133 121.6-21.333 35.2-52.267 64-89.6 83.2-8.533 4.267-18.133 5.333-27.733 2.133s-17.067-9.6-21.333-18.133c-8.533-18.133-2.133-39.467 16-49.067 52.267-26.667 84.267-80 84.267-138.667s-32-113.067-84.267-138.667c-18.133-9.6-24.533-30.933-16-49.067 6.4-12.8 18.133-20.267 32-20.267 5.333 0 11.733 1.067 16 4.267 38.4 17.067 69.333 45.867 90.667 81.067z" />
<glyph unicode="&#xe91c;" glyph-name="19" d="M410.667 336l-119.467 120.533-59.733-59.733 119.467-120.533 59.733-60.8 359.467 361.6-59.733 60.8-299.733-301.867zM512-42.666c-259.2 0-469.333 210.133-469.333 469.333s210.133 469.333 469.333 469.333 469.333-210.133 469.333-469.333-210.133-469.333-469.333-469.333z" />
</font>
</defs>
</svg>
